<?xml version="1.0" standalone="no"?>
<!DOCTYPE svg PUBLIC "-//W3C//DTD SVG 20010904//EN"
 "http://www.w3.org/TR/2001/REC-SVG-20010904/DTD/svg10.dtd">
<svg version="1.0" xmlns="http://www.w3.org/2000/svg"
 width="300.000000pt" height="300.000000pt" viewBox="0 0 300.000000 300.000000"
 preserveAspectRatio="xMidYMid meet">
<metadata>
Created by potrace 1.11, written by Peter Selinger 2001-2013
</metadata>
<g transform="translate(0.000000,300.000000) scale(0.100000,-0.100000)"
fill="#000000" stroke="none">
<path d="M1440 2884 c-58 -7 -130 -17 -160 -23 -30 -6 -66 -14 -80 -16 -33 -6
-165 -49 -215 -70 -84 -36 -112 -50 -177 -91 l-67 -43 36 66 c20 37 33 64 27
61 -304 -172 -405 -252 -504 -399 -77 -116 -147 -270 -175 -389 -35 -146 -52
-279 -50 -387 l2 -78 -21 29 c-12 16 -28 38 -38 50 -10 14 3 -47 39 -179 30
-110 61 -223 68 -251 53 -195 189 -448 299 -554 25 -25 46 -50 46 -56 0 -18
153 -152 245 -215 68 -46 77 -51 180 -104 132 -68 186 -87 355 -121 37 -8 469
-12 508 -6 21 4 21 5 5 18 -17 12 -17 13 -1 14 35 0 236 72 328 117 313 152
590 403 719 653 36 69 181 447 181 471 0 6 -12 -4 -27 -23 -15 -18 -48 -54
-72 -80 -24 -26 -50 -56 -58 -68 -21 -29 -37 -25 -28 7 33 131 46 355 30 523
-14 150 -68 397 -171 785 -9 34 -12 50 -14 60 -3 29 -30 -65 -32 -112 0 -5 -4
-18 -9 -31 -5 -13 -11 -37 -14 -55 -12 -66 -34 -153 -48 -186 l-14 -34 -12 35
c-30 92 -178 245 -341 353 -112 75 -206 120 -302 144 l-69 18 118 32 c65 18
161 44 213 58 52 14 113 31 135 38 l40 13 -35 2 c-19 1 -46 3 -60 5 -14 1 -72
6 -129 10 -57 3 -113 9 -125 11 -49 11 -428 10 -526 -2z"/>
</g>
</svg>
