<svg xmlns="http://www.w3.org/2000/svg" xmlns:xlink="http://www.w3.org/1999/xlink" width="2303" height="1256" viewBox="0 0 2303 1256">
  <defs>
    <linearGradient id="red-b" x1="100%" x2="0%" y1="0%" y2="100%">
      <stop offset="0%" stop-color="#F96"/>
      <stop offset="100%" stop-color="#FF5E62"/>
    </linearGradient>
    <polygon id="red-a" points="2303 .549 .477 .549 .477 1257 2303 1257"/>
  </defs>
  <g fill="none" fill-rule="evenodd" transform="translate(0 -1)">
    <mask id="red-c" fill="#fff">
      <use xlink:href="#red-a"/>
    </mask>
    <use fill="url(#red-b)" xlink:href="#red-a"/>
    <path fill="#258FE0" fill-opacity=".2" d="M619.890998,-620.319579 L2091.43423,-620.319579 C2091.43423,-620.319579 2142.10142,-627.107326 2184.64664,-585.351395 C2227.19186,-543.595464 2219.891,-494.245912 2219.891,-494.245912 L2219.891,-14.0505157 C2219.891,-14.0505157 2227.98613,77.9117681 2172.67926,133.218638 C2117.37239,188.525508 2011.93504,179.680421 2011.93504,179.680421 L619.890998,179.680421 L619.890998,-620.319579 Z" mask="url(#red-c)" opacity=".5" transform="rotate(45 1420.13 -220.264)" style="mix-blend-mode:color-burn"/>
    <path fill="#258FE0" fill-opacity=".2" d="M181.305119,794.454909 C244.640173,731.119855 341.057454,751.375368 341.057454,751.375368 L1733.24971,751.375368 L1733.24971,1551.37537 L284.412309,1551.37537 C284.412309,1551.37537 221.480203,1557.0716 172.060256,1510.26086 C122.640309,1463.45012 133.249714,1408.19365 133.249714,1408.19365 L133.249714,952.341705 C133.249714,952.341705 117.970065,857.789963 181.305119,794.454909 Z" mask="url(#red-c)" opacity=".5" transform="rotate(45 932.44 1149.943)" style="mix-blend-mode:color-burn"/>
    <path fill="#258FE0" fill-opacity=".2" d="M718.747126,633.41751 L2116.23877,633.41751 C2116.23877,633.41751 2193.97847,623.175152 2261.34751,693.821852 C2328.71654,764.468553 2318.74713,845.778374 2318.74713,845.778374 L2318.74713,1300.69452 C2318.74713,1300.69452 2322.94702,1364.29919 2287.43989,1399.80631 C2251.93277,1435.31343 2192.19742,1433.41751 2192.19742,1433.41751 L718.747126,1433.41751 L718.747126,633.41751 Z" mask="url(#red-c)" opacity=".5" transform="rotate(-45 1519.007 1033.168)" style="mix-blend-mode:color-burn"/>
    <path fill="#258FE0" fill-opacity=".2" d="M-101.113375,-945.19815 L1498.88662,-945.19815 L1498.88662,-344.003708 C1498.88662,-344.003708 1509.07213,-247.710796 1455.55337,-194.192032 C1402.0346,-140.673267 1305.14178,-150.258862 1305.14178,-150.258862 L-101.113375,-145.19815 L-101.113375,-945.19815 Z" mask="url(#red-c)" opacity=".5" transform="rotate(45 699.274 -545.198)" style="mix-blend-mode:color-burn"/>
  </g>
</svg>
