<svg xmlns="http://www.w3.org/2000/svg" width="609" height="100" viewBox="0 0 609 100">
  <g fill="none">
    <path fill="#378AE8" d="M12,0 L88,0 C94.627417,0 100,5.372583 100,12 L100,88 C100,94.627417 94.627417,100 88,100 L12,100 C5.372583,100 8.11624501e-16,94.627417 0,88 L0,12 C-8.11624501e-16,5.372583 5.372583,0 12,0 Z M38.3286892,30.0000383 C35.8777648,29.9913977 33.5444023,31.4453967 32.5266922,33.8720954 L21.5005615,60.1635684 C20.1461503,63.3931206 21.6348317,67.1224945 24.8256245,68.4933581 C28.0164174,69.8642217 31.7010332,68.3574568 33.0554444,65.1279046 L38.4658014,52.2270732 L44.0979509,65.0307513 C44.6815449,66.357447 45.6592374,67.3819589 46.8293639,68.0259347 C47.1078917,68.2025345 47.4037814,68.3592346 47.7159644,68.4933581 C50.9067572,69.8642217 54.591373,68.3574568 55.9457842,65.1279046 L61.3561412,52.2270732 L66.9882907,65.0307513 C68.3981826,68.2358867 72.1082184,69.6773356 75.2748875,68.2503173 C78.4415566,66.823299 79.8657059,63.0681965 78.455814,59.863061 L66.97802,33.7703624 C65.9343229,31.397705 63.6301564,29.9915406 61.219029,30.0000383 C58.7681046,29.9913977 56.4347421,31.4453967 55.4170321,33.8720954 L49.9093746,47.0049368 L44.0876802,33.7703624 C43.0439831,31.397705 40.7398166,29.9915406 38.3286892,30.0000383 Z"/>
    <path fill="#000" d="M165.6,17.1 L179.9,43 L194.9,17.1 L208.8,17.1 L185.7,55.2 L185.7,82 L173.9,82 L173.9,55.2 L151.6,17.1 L165.6,17.1 Z M226.95,32.1 C230.216683,32.1 233.283319,32.6166615 236.15,33.65 C239.016681,34.6833385 241.483323,36.266656 243.55,38.4 C248.150023,43.06669 250.45,49.533292 250.45,57.8 C250.45,65.933374 248.150023,72.33331 243.55,77 C239.416646,81.266688 233.883368,83.4 226.95,83.4 C220.016632,83.4 214.416688,81.266688 210.15,77 C205.549977,72.399977 203.25,66.000041 203.25,57.8 C203.25,49.466625 205.549977,43.000023 210.15,38.4 C214.350021,34.199979 219.949965,32.1 226.95,32.1 Z M238.65,57.7 C238.65,52.566641 237.65001,48.7166795 235.65,46.15 C233.64999,43.5833205 230.866685,42.3 227.3,42.3 C223.733316,42.3 220.816678,43.5833205 218.55,46.15 C216.283322,48.7166795 215.15,52.566641 215.15,57.7 C215.15,62.833359 216.166656,66.6833205 218.2,69.25 C220.233343,71.8166795 223.016649,73.1 226.55,73.1 C230.083351,73.1 232.983322,71.8166795 235.25,69.25 C237.516678,66.6833205 238.65,62.833359 238.65,57.7 Z M293,73.2 C289.933318,79.666699 285.000034,82.9 278.2,82.9 C269.599957,82.9 263.933347,79.533367 261.2,72.8 C260.199995,70.466655 259.7,67.63335 259.7,64.3 L259.7,33.3 L271.5,33.3 L271.5,63.1 C271.5,66.300016 272.266659,68.6833255 273.8,70.25 C275.333341,71.8166745 277.216656,72.6 279.45,72.6 C281.683344,72.6 283.566659,72.2833365 285.1,71.65 C286.633341,71.0166635 287.966661,70.066673 289.1,68.8 C291.566679,65.933319 292.866666,62.100024 293,57.3 L293,33.3 L304.8,33.3 L304.8,82 L293,82 L293,73.2 Z M331.45,43 C334.383348,35.999965 338.783304,32.5 344.65,32.5 C345.783339,32.5 347.216658,32.733331 348.95,33.2 L348.75,45 C346.883324,44.599998 345.050009,44.4 343.25,44.4 C335.383294,44.4 331.45,49.833279 331.45,60.7 L331.45,82 L319.65,82 L319.65,33.3 L331.45,33.3 L331.45,43 Z M398.3,39.1 C402.433354,43.76669 404.5,49.899962 404.5,57.5 C404.5,65.100038 402.333355,71.366642 398,76.3 C393.799979,81.033357 388.566698,83.4 382.3,83.4 C379.299985,83.4 376.550012,82.600008 374.05,81 C371.549988,79.399992 369.566674,76.93335 368.1,73.6 L365.2,82 L357.5,82 L357.5,13.4 L369.3,13.4 L369.3,39.5 C372.366682,34.566642 376.94997,32.1 383.05,32.1 C389.150031,32.1 394.233313,34.43331 398.3,39.1 Z M369.3,54.7 L369.3,61.1 C369.433334,64.500017 370.666655,67.299989 373,69.5 C375.200011,71.633344 377.883318,72.7 381.05,72.7 C384.216682,72.7 386.933322,71.3166805 389.2,68.55 C391.466678,65.7833195 392.6,62.133356 392.6,57.6 C392.6,53.066644 391.483345,49.4500135 389.25,46.75 C387.016656,44.0499865 384.23335,42.7 380.9,42.7 C377.56665,42.7 374.800011,43.799989 372.6,46 C370.399989,48.200011 369.3,51.099982 369.3,54.7 Z M426.95,43 C429.883348,35.999965 434.283304,32.5 440.15,32.5 C441.283339,32.5 442.716658,32.733331 444.45,33.2 L444.25,45 C442.383324,44.599998 440.550009,44.4 438.75,44.4 C430.883294,44.4 426.95,49.833279 426.95,60.7 L426.95,82 L415.15,82 L415.15,33.3 L426.95,33.3 L426.95,43 Z M469,53.6 C472.866686,53.6 477.333308,54.233327 482.4,55.5 L482.4,50.7 C482.4,47.299983 481.716674,44.7833415 480.35,43.15 C478.983327,41.5166585 476.750016,40.7 473.65,40.7 C470.549985,40.7 468.166675,41.3166605 466.5,42.55 C464.833325,43.7833395 464,45.533322 464,47.8 L451.1,47.8 C451.1,42.266639 453.049981,38.266679 456.95,35.8 C460.85002,33.333321 466.299965,32.1 473.3,32.1 C483.30005,32.1 489.766652,35.599965 492.7,42.6 C493.700005,45.000012 494.2,47.833317 494.2,51.1 L494.2,82 L483.9,82 L483,75.5 C479.866651,80.766693 475.066699,83.4 468.6,83.4 C462.333302,83.4 457.466684,81.866682 454,78.8 C450.799984,75.866652 449.2,72.1500225 449.2,67.65 C449.2,63.1499775 450.966649,59.6833455 454.5,57.25 C458.033351,54.8166545 462.866636,53.6 469,53.6 Z M482.4,63 C478.466647,61.933328 474.800017,61.4 471.4,61.4 C464.999968,61.4 461.8,63.533312 461.8,67.8 C461.8,69.600009 462.533326,71.1499935 464,72.45 C465.466674,73.7500065 467.816651,74.4 471.05,74.4 C474.28335,74.4 476.94999,73.3166775 479.05,71.15 C481.150011,68.9833225 482.266666,66.266683 482.4,63 Z M519.25,41.8 C522.450016,35.333301 527.583298,32.1 534.65,32.1 C540.65003,32.1 545.166652,34.066647 548.2,38 C551.233349,41.933353 552.75,47.133301 552.75,53.6 L552.75,82 L540.95,82 L540.95,53.6 C540.95,49.999982 540.083342,47.2833425 538.35,45.45 C536.616658,43.6166575 534.183349,42.7 531.05,42.7 C527.916651,42.7 525.233345,44.099986 523,46.9 C520.766656,49.700014 519.583334,53.899972 519.45,59.5 L519.45,82 L507.65,82 L507.65,33.4 L517.95,33.4 L519.25,41.8 Z M597.9,74.5 C594.899985,80.433363 590.300031,83.4 584.1,83.4 C577.899969,83.4 572.700021,81.033357 568.5,76.3 C564.166645,71.366642 562,65.100038 562,57.5 C562,49.899962 564.066646,43.733357 568.2,39 C572.266687,34.399977 577.333303,32.1 583.4,32.1 C589.466697,32.1 594.033318,34.533309 597.1,39.4 L597.1,13.4 L609,13.4 L609,82 L599.3,82 L597.9,74.5 Z M585.6,42.7 C582.26665,42.7 579.483345,44.0499865 577.25,46.75 C575.016656,49.4500135 573.9,53.066644 573.9,57.6 C573.9,62.133356 575.033322,65.7833195 577.3,68.55 C579.566678,71.3166805 582.433316,72.7 585.9,72.7 C588.766681,72.7 591.333322,71.566678 593.6,69.3 C595.933345,66.966655 597.1,64.033351 597.1,60.5 L597.1,54.2 C596.966666,50.733316 595.800011,47.900011 593.6,45.7 C591.59999,43.69999 588.93335,42.7 585.6,42.7 Z"/>
  </g>
</svg>
